<?xml version="1.0" encoding="UTF-8" standalone="no"?>
<!-- Created with Inkscape (http://www.inkscape.org/) -->

<svg
   width="183.97974mm"
   height="65.905273mm"
   viewBox="0 0 183.97974 65.905273"
   version="1.1"
   id="svg5"
   inkscape:version="1.1.1 (3bf5ae0d25, 2021-09-20)"
   sodipodi:docname="shiba.svg"
   xmlns:inkscape="http://www.inkscape.org/namespaces/inkscape"
   xmlns:sodipodi="http://sodipodi.sourceforge.net/DTD/sodipodi-0.dtd"
   xmlns="http://www.w3.org/2000/svg"
   xmlns:svg="http://www.w3.org/2000/svg">
  <sodipodi:namedview
     id="namedview7"
     pagecolor="#ffffff"
     bordercolor="#666666"
     borderopacity="1.0"
     inkscape:pageshadow="2"
     inkscape:pageopacity="0.0"
     inkscape:pagecheckerboard="false"
     inkscape:document-units="mm"
     showgrid="false"
     fit-margin-top="0"
     fit-margin-left="0"
     fit-margin-right="0"
     fit-margin-bottom="0"
     inkscape:zoom="0.72337262"
     inkscape:cx="329.01439"
     inkscape:cy="304.82216"
     inkscape:window-width="1920"
     inkscape:window-height="1001"
     inkscape:window-x="-9"
     inkscape:window-y="-9"
     inkscape:window-maximized="1"
     inkscape:current-layer="layer1" />
  <defs
     id="defs2" />
  <g
     inkscape:label="Layer 1"
     inkscape:groupmode="layer"
     id="layer1"
     transform="translate(-11.281685,-67.966244)">
    <path
       style="fill:#000000;stroke-width:0.176389"
       d="m 37.419721,133.68335 c -12.18049,-1.56028 -21.6003,-8.48528 -24.953751,-18.34484 -0.853136,-2.50833 -1.197884,-4.87432 -1.183876,-8.12488 0.01977,-4.58822 0.84243,-8.175947 2.865777,-12.498067 l 0.856717,-1.83006 0.09009,-4.12482 c 0.125233,-5.73409 0.759707,-9.439617 2.337177,-13.649833 2.1541,-5.749199 4.11772,-7.71014 6.8941,-6.884678 1.60062,0.475892 4.75699,3.248316 7.5369,6.620095 0.67987,0.824618 1.29364,1.565777 1.36393,1.647019 0.0703,0.08124 0.87097,-0.05253 1.77927,-0.297265 2.64477,-0.712625 4.25712,-0.873697 7.70213,-0.769432 2.49617,0.07555 3.47493,0.181756 4.88544,0.530137 0.97013,0.239614 1.96232,0.483523 2.20486,0.54202 0.38929,0.0939 0.60634,-0.09263 1.85208,-1.591652 1.97682,-2.37874 4.73179,-5.106945 5.95612,-5.898273 1.93266,-1.249137 3.66436,-1.291255 4.99661,-0.121526 1.24977,1.097316 2.71784,3.868469 3.86358,7.292961 1.38619,4.143159 1.82634,6.976997 1.97083,12.688927 l 0.10709,4.23333 0.83552,1.6757 c 3.93699,7.895937 3.89044,17.422617 -0.12063,24.685597 -2.40426,4.35347 -6.69798,8.34926 -11.61733,10.81124 -3.02902,1.51594 -6.92899,2.72717 -10.40151,3.23045 -2.60715,0.37787 -7.55953,0.46755 -9.82112,0.17785 z m 7.64167,-3.80831 c 6.35169,-0.6292 11.51565,-2.68706 15.86413,-6.32193 4.92261,-4.11478 7.62391,-9.53851 7.6108,-15.28115 -0.007,-3.23091 -0.85555,-5.32393 -2.95657,-7.29578 -1.8167,-1.705027 -4.93259,-3.022967 -7.14689,-3.022967 -1.10017,0 -1.47498,0.35376 -1.74769,1.64953 -0.26649,1.266147 -1.10519,2.275337 -2.38878,2.874337 -1.46718,0.68468 -2.25134,0.58111 -4.82907,-0.63781 -3.05044,-1.44245 -4.72913,-1.83466 -7.78273,-1.81836 -2.98513,0.0159 -4.93108,0.48119 -7.58703,1.81401 -2.27693,1.14262 -3.33477,1.30079 -4.71853,0.70551 -1.49645,-0.64376 -2.6822,-2.22077 -2.68651,-3.572987 -0.002,-0.61246 -0.64421,-1.01423 -1.62132,-1.01423 -3.13303,0 -6.88873,2.079777 -8.61576,4.771127 -2.136963,3.33017 -1.890744,8.89105 0.6166,13.92609 0.91695,1.84133 1.37564,2.52464 2.88368,4.29574 5.53519,6.50077 15.13854,9.91621 25.10567,8.92887 z m -9.28583,-12.11779 c -1.63851,-0.26128 -2.49678,-0.678 -3.53546,-1.71659 -1.34557,-1.34546 -1.81375,-2.68199 -1.28883,-3.67925 0.27338,-0.51939 0.49225,-0.64398 1.13688,-0.64717 0.66052,-0.003 1.03452,0.38087 1.28538,1.32022 0.39915,1.49463 1.2265,2.02847 3.14371,2.02847 2.21347,0 3.85624,-1.2309 4.06042,-3.0424 l 0.0852,-0.7558 -1.10003,-0.52577 c -2.78489,-1.33105 -3.65922,-4.18064 -1.89816,-6.18638 1.01857,-1.16009 1.71256,-1.3959 4.10812,-1.3959 1.84085,0 2.21078,0.0504 2.83892,0.38649 1.27009,0.67962 2.18338,2.05077 2.18718,3.28367 0.005,1.56703 -1.13167,3.14213 -2.81097,3.89576 -1.03362,0.46386 -1.0686,0.50134 -1.0686,1.14498 0,0.99556 0.85824,2.18214 1.98412,2.74319 0.70054,0.34909 1.17087,0.45128 2.06336,0.44829 1.95746,-0.007 2.88633,-0.63337 3.26165,-2.20099 0.18409,-0.76892 0.59922,-1.14653 1.26047,-1.14653 2.00707,0 1.55023,3.38718 -0.65977,4.89171 -2.25536,1.53541 -5.3912,1.48699 -7.89853,-0.12196 -0.45977,-0.29503 -0.9667,-0.53641 -1.12652,-0.53641 -0.15983,0 -0.67932,0.23918 -1.15443,0.53152 -1.46435,0.90103 -3.65156,1.47579 -4.8741,1.28085 z m 8.3432,-11.54904 c 0.33677,-0.33678 0.24613,-0.97891 -0.18036,-1.27764 -0.45993,-0.32214 -3.64239,-0.39346 -4.20164,-0.0941 -0.5553,0.29718 -0.71844,0.77023 -0.41503,1.20341 0.24792,0.35395 0.4145,0.38005 2.42578,0.38005 1.44449,0 2.22967,-0.0701 2.37125,-0.21167 z m -18.75457,2.63385 c -1.05364,-0.9063 -0.40915,-2.59857 0.98963,-2.59857 0.51948,0 0.75588,0.11498 1.11578,0.5427 0.56149,0.66728 0.58002,1.23593 0.0598,1.83467 -0.58953,0.67849 -1.52272,0.77383 -2.16519,0.2212 z m 30.77072,-0.11556 c -0.57461,-0.5746 -0.64029,-1.02469 -0.25754,-1.76484 0.44302,-0.85672 1.59386,-0.99896 2.3076,-0.28522 0.71374,0.71374 0.5715,1.86457 -0.28522,2.3076 -0.74015,0.38274 -1.19024,0.31706 -1.76484,-0.25754 z M 30.655971,98.595543 c 0.47525,-0.34752 0.43373,-1.317 -0.074,-1.72815 -0.54936,-0.44485 -1.00137,-0.40815 -1.53407,0.12456 -1.02297,1.02297 0.42604,2.46793 1.6081,1.60359 z m 23.63951,0.12736 c 0.76394,-0.29315 0.64836,-1.66114 -0.17193,-2.0349 -1.22289,-0.55718 -2.2,1.26403 -1.07957,2.01216 0.24069,0.16071 0.86251,0.17201 1.2515,0.0227 z m -17.4618,-0.76959 c 1.15616,-0.55969 1.63062,-1.89246 1.06386,-2.98844 -0.33069,-0.63949 -1.12807,-1.26654 -3.70863,-2.91644 -1.78968,-1.14425 -2.18441,-1.32717 -2.86394,-1.32717 -0.66115,0 -0.8848,0.0966 -1.38788,0.59973 -0.47838,0.47838 -0.59846,0.73712 -0.59347,1.27882 0.009,0.94569 0.27642,1.33937 1.49356,2.19631 0.5818,0.40962 1.60034,1.22016 2.26342,1.80119 1.20393,1.05495 2.25405,1.70868 2.74476,1.70868 0.14289,0 0.58763,-0.15871 0.98832,-0.35268 z m 11.66191,0.0911 c 0.34434,-0.14387 1.19507,-0.76485 1.89052,-1.37995 0.69545,-0.61509 1.74952,-1.45365 2.34238,-1.86345 1.1673,-0.80686 1.47971,-1.28266 1.47971,-2.25359 0,-0.48189 -0.14367,-0.77037 -0.62174,-1.24844 -0.57781,-0.57781 -0.68288,-0.61587 -1.48684,-0.53862 -0.68472,0.0658 -1.24466,0.32513 -2.68555,1.2438 -3.40829,2.17305 -4.02325,2.77486 -4.02466,3.9386 -8.8e-4,0.72344 0.65147,1.67119 1.41397,2.05428 0.74743,0.37552 0.89682,0.37971 1.69221,0.0474 z m -27.29644,-11.74349 1.40411,-1.24536 0.1093,-1.70916 c 0.2284,-3.571408 0.3019,-4.077272 0.65817,-4.530197 0.25365,-0.322461 0.51602,-0.442151 0.96922,-0.442151 0.6541,0 1.21066,0.320691 2.50871,1.445528 0.42596,0.369126 0.90221,0.66917 1.05833,0.666765 0.35507,-0.0055 1.94205,-1.1559 2.07597,-1.504913 0.1825,-0.475591 -3.21361,-4.442741 -4.7731,-5.575682 -0.82397,-0.598598 -1.79028,-0.663574 -2.42645,-0.163159 -1.46486,1.152256 -3.24549,6.721279 -3.64757,11.407989 -0.2898,3.37793 -0.0767,3.54838 2.06331,1.65033 z m 43.30803,0.96868 c 0.16273,-0.42407 -0.22056,-4.3733 -0.60393,-6.22249 -0.70269,-3.389498 -2.14301,-7.01942 -3.07663,-7.753805 -0.5683,-0.447024 -1.47118,-0.504904 -2.17336,-0.139325 -1.0935,0.569317 -5.27223,5.354275 -5.0902,5.828653 0.12411,0.323423 1.70951,1.497832 2.02995,1.503712 0.13106,0.0024 0.8303,-0.471877 1.55387,-1.05396 1.08827,-0.875467 1.43096,-1.058333 1.98334,-1.058333 0.42166,0 0.77479,0.118279 0.9582,0.320943 0.39558,0.43711 0.64617,1.886757 0.64617,3.738025 0,2.37867 0.0396,2.47338 1.617,3.87249 1.39546,1.23769 1.95463,1.48778 2.15559,0.96409 z M 191.26611,133.71881 c -0.24049,-0.12646 -0.62119,-0.54593 -0.846,-0.93214 -0.35923,-0.61714 -0.40086,-0.88384 -0.34366,-2.20152 0.0724,-1.66819 0.54282,-2.8515 1.49142,-3.75173 2.0887,-1.98218 4.33737,0.34809 3.52247,3.65028 -0.30954,1.25437 -0.98229,2.41373 -1.71543,2.95628 -0.58925,0.43604 -1.56462,0.56501 -2.1088,0.27883 z M 69.828621,133.19174 c -0.34148,-0.48753 -0.35795,-1.88924 -0.0314,-2.67083 0.13376,-0.32014 0.46197,-0.75416 0.72934,-0.96447 0.46502,-0.36579 0.65366,-0.3824 4.3429,-0.3824 2.12123,0 3.85677,-0.0451 3.85677,-0.10026 0,-0.0551 -1.30969,-2.58142 -2.91042,-5.61395 -2.82326,-5.3486 -2.91041,-5.54527 -2.91041,-6.56789 0,-1.246 0.62379,-2.6795 1.40942,-3.23892 0.4828,-0.34378 0.76916,-0.35398 9.93931,-0.35398 6.25997,0 9.60954,0.0634 9.93874,0.18814 0.62947,0.2385 1.24482,0.80918 1.604,1.48756 0.45163,0.85298 0.35333,2.54215 -0.30023,5.15937 l -0.58363,2.33716 h -4.63425 -4.63425 l 0.59372,-2.33716 c 0.32654,-1.28543 0.59555,-2.35699 0.5978,-2.38125 0.002,-0.0242 -1.06747,-0.0441 -2.37716,-0.0441 -1.30969,0 -2.38125,0.0414 -2.38125,0.092 0,0.0506 1.31807,2.60127 2.92904,5.66818 2.85982,5.44441 2.9287,5.60088 2.91434,6.62058 -0.0179,1.26914 -0.46922,2.36311 -1.24396,3.015 l -0.56954,0.47925 h -8.00216 -8.00216 z m 26.99147,0.0833 c 0.038,-0.16977 0.94554,-6.5793 2.01669,-14.2434 1.07116,-7.6641 1.993949,-14.19269 2.050649,-14.50798 l 0.10309,-0.57327 h 4.56648 c 3.73732,0 4.56648,0.0437 4.56648,0.2404 0,0.13222 -0.27782,2.16717 -0.61736,4.5221 -0.33955,2.35494 -0.61736,4.3502 -0.61736,4.43391 0,0.0837 2.40109,0.15395 5.33576,0.15608 4.799,0.003 5.40674,0.0365 6.04132,0.32786 0.38805,0.1782 0.84237,0.47805 1.00959,0.66635 0.4871,0.54848 0.84249,1.78463 0.84249,2.93045 0,0.90981 -2.04877,16.17069 -2.18985,16.31178 -0.0277,0.0277 -2.11001,0.0292 -4.62736,0.003 l -4.57699,-0.0471 1.00187,-7.10975 c 0.55102,-3.91036 1.05191,-7.4227 1.11307,-7.80521 l 0.11121,-0.69547 h -2.36203 -2.36202 l -0.18981,1.27882 c -0.1044,0.70335 -0.60393,4.23554 -1.11007,7.84931 l -0.92026,6.57049 h -4.62736 c -4.315769,0 -4.622719,-0.0208 -4.558229,-0.30869 z m 26.659059,-0.35277 c 0.0511,-0.3638 0.69841,-4.90802 1.43843,-10.09827 l 1.34548,-9.4368 4.60289,-0.047 4.60289,-0.047 -0.21427,1.54628 c -0.11785,0.85045 -0.75756,5.41581 -1.42158,10.14524 l -1.20731,8.59896 h -4.61973 -4.61974 z m 13.85443,0.0882 c 0.0474,-0.31529 0.98911,-6.9827 2.09259,-14.81646 l 2.00634,-14.24319 4.63021,-1.8e-4 c 2.54661,-1.1e-4 4.62773,0.0196 4.6247,0.0439 -0.003,0.0242 -0.30672,2.12769 -0.67489,4.67431 l -0.6694,4.6302 5.21691,0.008 c 6.38304,0.009 6.82585,0.11666 7.6192,1.84434 0.47908,1.0433 0.41803,2.72061 -0.2825,7.76111 -0.99192,7.1372 -1.16848,7.79231 -2.49721,9.26595 -1.31453,1.45788 -0.79088,1.39733 -12.12211,1.40171 l -10.03009,0.004 z m 14.50225,-4.40972 c 0.14135,-0.80577 1.50293,-10.38258 1.50293,-10.57101 0,-0.0852 -1.04801,-0.13271 -2.32891,-0.10564 l -2.32891,0.0492 -0.75074,5.46805 c -0.4129,3.00743 -0.75396,5.52759 -0.75789,5.60035 -0.004,0.0728 1.02111,0.13229 2.2779,0.13229 h 2.28506 z m 13.70009,4.68375 c -0.32508,-0.16017 -0.79894,-0.60536 -1.05304,-0.98933 -0.40106,-0.60605 -0.47055,-0.92187 -0.5269,-2.39471 -0.074,-1.93304 0.4296,-5.35791 1.01964,-6.93494 0.4416,-1.18028 1.38719,-2.31676 2.36091,-2.83752 0.70328,-0.37613 0.9401,-0.39279 6.31081,-0.44395 l 5.58011,-0.0532 0.10843,-0.54215 c 0.25813,-1.29064 0.78427,-1.18023 -5.90457,-1.23899 l -6.01299,-0.0528 -0.33701,-0.41642 c -0.6911,-0.85395 -0.33319,-2.93709 0.63555,-3.6991 0.48403,-0.38074 0.52456,-0.3824 9.34367,-0.3824 6.1548,0 9.04049,0.0613 9.45712,0.20082 1.40674,0.47117 2.08913,1.66986 2.095,3.68012 0.003,1.03354 -1.52733,12.97897 -2.0281,15.83052 l -0.10066,0.57327 -10.17847,-0.004 c -9.09964,-0.004 -10.24111,-0.0349 -10.7695,-0.29522 z m 12.7022,-6.22715 c 0.46825,-3.1878 0.73021,-2.8404 -2.09867,-2.78311 l -2.42293,0.0491 -0.29796,2.02847 c -0.46824,3.1878 -0.73021,2.8404 2.09868,2.7831 l 2.42292,-0.0491 z m -51.17288,-19.00768 c -0.84011,-0.68028 -0.55677,-2.93675 0.4702,-3.74456 0.42365,-0.33325 0.71033,-0.35468 4.74457,-0.35468 h 4.29367 l 0.28562,0.43591 c 0.36216,0.55272 0.36259,2.01297 8.8e-4,2.71258 -0.14918,0.28849 -0.48197,0.69029 -0.73953,0.89288 -0.44439,0.34956 -0.67756,0.36835 -4.57009,0.36835 -3.65274,0 -4.14379,-0.034 -4.48524,-0.31048 z m -46.914739,-8.04831 c 0.0557,-0.0576 5.61198,-4.507397 12.34722,-9.888427 l 12.245899,-9.783692 10.13606,-0.0075 c 8.57215,-0.0063 10.09621,0.02969 9.87778,0.233289 -0.14206,0.132412 -5.69548,4.555553 -12.34093,9.829203 l -12.08264,9.58846 -10.142359,0.0667 c -5.5783,0.0367 -10.09676,0.0196 -10.04103,-0.038 z m 44.478549,-0.328357 c 0.0455,-0.21828 2.56381,-6.94531 5.59615,-14.94896 3.03233,-8.003644 5.59177,-14.770363 5.68765,-15.037151 l 0.17431,-0.48507 h 8.73286 c 6.9119,0 8.71598,0.04598 8.65188,0.220486 -0.0445,0.121268 -2.65165,7.014905 -5.79357,15.319195 l -5.71259,15.09871 -3.52981,0.11437 c -1.9414,0.0629 -5.86078,0.114577 -8.70975,0.114827 l -5.17994,5.3e-4 0.0828,-0.396867 z m 33.00774,-2.99861 c 0.0592,-1.86752 0.1492,-7.12611 0.19991,-11.68576 0.0507,-4.559658 0.14012,-9.699189 0.19868,-11.421186 l 0.10648,-3.130903 4.43352,0.0062 c 5.06509,0.007 6.54818,0.195997 8.29759,1.057227 1.2848,0.632506 2.66377,1.962682 3.27332,3.157498 0.83838,1.64336 0.88197,2.345264 0.88524,14.255854 l 0.003,11.156597 h -8.75275 -8.75275 z m -85.768039,-7.71269 c -0.69765,-0.17021 -1.35819,-0.63104 -1.85142,-1.29167 -0.4341,-0.58144 -0.59072,-2.29002 -0.29269,-3.19306 0.28908,-0.8759 1.728,-2.4017 2.7639,-2.93077 l 0.85785,-0.43813 8.50668,-0.052 c 5.65469,-0.0346 8.7419,0.0113 9.2083,0.13693 1.98658,0.53493 2.84583,2.7604 1.86436,4.82869 -0.42981,0.90575 -1.66704,2.10752 -2.68659,2.60957 l -0.84136,0.41431 -8.46666,0.0307 c -4.65667,0.0169 -8.73474,-0.0347 -9.06237,-0.11461 z M 177.85681,78.236467 c 0,-0.12209 1.80031,-8.869916 2.03177,-9.872492 0.0906,-0.392396 0.12543,-0.396875 3.08687,-0.396875 1.66256,0 2.99525,0.0708 2.99525,0.159122 0,0.08752 -0.47612,2.369549 -1.05807,5.071181 -0.58195,2.701632 -1.0582,4.971589 -1.05834,5.04435 -1.4e-4,0.07276 -1.34963,0.132292 -2.99887,0.132292 -1.64923,0 -2.99861,-0.06191 -2.99861,-0.137578 z m 9.23804,-0.166881 c 0.0507,-0.172096 0.53872,-2.453119 1.0844,-5.06894 0.54568,-2.615821 1.03075,-4.818477 1.07791,-4.894792 0.0916,-0.148131 5.7676,-0.198114 5.91365,-0.05208 0.0477,0.04767 -0.40208,2.369393 -0.99944,5.159375 l -1.08613,5.072696 -3.04133,0.04832 c -2.8417,0.04515 -3.03527,0.02778 -2.94906,-0.264583 z M 73.969001,76.862526 c -1.27608,-0.558727 -1.829,-1.442699 -1.81571,-2.902851 0.005,-0.536133 0.13037,-1.265559 0.27886,-1.620946 0.38165,-0.913421 1.53665,-2.105172 2.53407,-2.61469 l 0.84962,-0.434023 8.64305,-0.0537 c 9.00746,-0.05597 9.48339,-0.02389 10.40523,0.701222 0.55261,0.434687 1.1386,1.599608 1.14437,2.27498 0.0137,1.598425 -1.29611,3.565723 -2.92928,4.399807 l -0.8592,0.438805 -8.81945,0.0397 c -7.56402,0.03405 -8.90658,0.0016 -9.43156,-0.228306 z"
       id="path836" />
  </g>
</svg>
