<?xml version="1.0" encoding="UTF-8" standalone="no"?>
<!-- Created with Inkscape (http://www.inkscape.org/) -->

<svg
   width="204.01308mm"
   height="284.79984mm"
   viewBox="0 0 204.01308 284.79983"
   version="1.1"
   id="svg5"
   inkscape:version="1.1.1 (3bf5ae0d25, 2021-09-20)"
   sodipodi:docname="shiba_.svg"
   xmlns:inkscape="http://www.inkscape.org/namespaces/inkscape"
   xmlns:sodipodi="http://sodipodi.sourceforge.net/DTD/sodipodi-0.dtd"
   xmlns="http://www.w3.org/2000/svg"
   xmlns:svg="http://www.w3.org/2000/svg">
  <sodipodi:namedview
     id="namedview7"
     pagecolor="#ffffff"
     bordercolor="#666666"
     borderopacity="1.0"
     inkscape:pageshadow="2"
     inkscape:pageopacity="0.0"
     inkscape:pagecheckerboard="false"
     inkscape:document-units="mm"
     showgrid="false"
     fit-margin-top="0"
     fit-margin-left="0"
     fit-margin-right="0"
     fit-margin-bottom="0"
     inkscape:zoom="0.72337262"
     inkscape:cx="168.65444"
     inkscape:cy="414.03281"
     inkscape:window-width="1920"
     inkscape:window-height="1001"
     inkscape:window-x="-9"
     inkscape:window-y="-9"
     inkscape:window-maximized="1"
     inkscape:current-layer="layer1" />
  <defs
     id="defs2" />
  <g
     inkscape:label="Layer 1"
     inkscape:groupmode="layer"
     id="layer1"
     transform="translate(-53.810869,-38.97677)">
    <path
       style="fill:#000000;stroke-width:0.0846667"
       d="m 251.81624,323.73004 c -1.28963,-0.22273 -2.22826,-1.04919 -2.59695,-2.28659 -0.17948,-0.60236 -0.11654,-1.78558 0.13234,-2.48855 0.33276,-0.93985 1.13704,-1.95537 2.07999,-2.62629 1.782,-1.2679 4.04391,-1.25728 5.32619,0.025 0.97839,0.97839 1.21644,2.58335 0.60598,4.0857 -0.55394,1.36324 -1.99596,2.69047 -3.39217,3.12213 -0.64541,0.19954 -1.56137,0.27119 -2.15538,0.1686 z M 54.83562,323.35739 c -0.99555,-0.35202 -1.330544,-1.7234 -0.715485,-2.92902 0.261511,-0.51261 0.940043,-1.15284 1.499855,-1.41521 l 0.48563,-0.2276 6.419868,-0.0232 c 3.530928,-0.0128 6.407478,-0.0534 6.392333,-0.0902 -0.01514,-0.0368 -2.084934,-2.64523 -4.599534,-5.79643 -2.5146,-3.15119 -4.666391,-5.90826 -4.781757,-6.12682 -0.448287,-0.84926 -0.276943,-2.1797 0.413968,-3.21435 0.602184,-0.90178 1.705256,-1.63333 2.726775,-1.80838 0.381645,-0.0654 4.929367,-0.084 15.484014,-0.0634 13.807238,0.027 14.988737,0.0403 15.536333,0.17535 2.357598,0.58127 3.2981,1.60362 3.284286,3.5701 -0.0066,0.94181 -0.1652,1.4912 -1.197531,4.14867 l -0.75647,1.94733 -7.501976,0.0216 c -4.126087,0.0119 -7.501975,0.005 -7.501975,-0.0157 0,-0.0205 0.419691,-1.15042 0.932647,-2.51092 0.512956,-1.3605 0.918964,-2.48731 0.902239,-2.50403 -0.01672,-0.0167 -1.751974,-0.0205 -3.856111,-0.008 l -3.825702,0.022 4.625256,5.842 c 2.543891,3.2131 4.70707,5.9944 4.807063,6.18067 0.149373,0.27824 0.181848,0.48216 0.182041,1.143 2.54e-4,0.73089 -0.02471,0.85699 -0.272945,1.38109 -0.496098,1.0474 -1.565455,1.95737 -2.707377,2.30385 -0.600417,0.18218 -25.459967,0.18014 -25.975445,-0.002 z m 43.251245,-0.0633 c 0.026,-0.10477 1.534304,-7.18185 3.351795,-15.72683 1.81749,-8.54498 3.32507,-15.62206 3.35019,-15.72683 l 0.0457,-0.1905 h 7.44905 c 6.13085,0 7.44906,0.0199 7.44906,0.11227 0,0.0618 -0.4572,2.25913 -1.016,4.88306 -0.5588,2.62393 -1.016,4.83918 -1.016,4.92278 0,0.14509 0.40358,0.15325 8.86883,0.17931 8.65719,0.0267 8.88298,0.0315 9.4615,0.2013 1.86311,0.54696 2.85931,1.60522 3.09731,3.29028 0.0526,0.37253 0.0754,0.92498 0.0507,1.22766 -0.0329,0.40232 -3.1557,15.41268 -3.50085,16.8275 l -0.0465,0.1905 h -7.48383 c -4.71187,0 -7.48382,-0.03 -7.48382,-0.0811 0,-0.0446 0.8001,-3.83806 1.778,-8.42993 0.9779,-4.59187 1.778,-8.38444 1.778,-8.42793 0,-0.0478 -1.49099,-0.0791 -3.76976,-0.0791 h -3.76976 l -0.0703,0.1905 c -0.0386,0.10478 -0.86638,3.93373 -1.83941,8.50878 l -1.76915,8.31828 h -7.48101 -7.48101 l 0.04727,-0.1905 z m 43.151085,0.0818 c 0,-0.14864 4.55742,-21.57962 4.59756,-21.61977 0.0175,-0.0175 3.38259,-0.0221 7.47798,-0.0102 l 7.44617,0.0216 -2.29814,10.83734 -2.29813,10.83733 -7.46272,0.0216 c -6.0615,0.0176 -7.46272,10e-4 -7.46272,-0.088 z m 22.43715,0.0875 c 0.003,-0.11122 6.76705,-31.75127 6.79407,-31.77827 0.0199,-0.0199 3.38724,-0.0264 7.48302,-0.0145 l 7.44686,0.0216 -1.03615,4.826 c -0.56987,2.6543 -1.03827,4.91021 -1.04087,5.01314 l -0.005,0.18714 8.6995,0.0262 8.6995,0.0262 0.81524,0.22369 c 1.26885,0.34817 1.95469,0.77299 2.48054,1.53651 0.4735,0.6875 0.65442,1.36388 0.66061,2.46982 0.005,0.8843 -0.053,1.20499 -1.14835,6.35 -1.20685,5.66892 -1.28442,6.00137 -1.56084,6.68954 -0.4529,1.12752 -1.43717,2.3576 -2.42112,3.02579 -0.5401,0.36677 -1.67905,0.91883 -2.21632,1.07427 -1.20555,0.34878 -0.95107,0.34383 -17.6706,0.34395 -8.78945,6e-5 -15.98061,-0.009 -15.98035,-0.0211 z m 23.57173,-4.953 c 0.0266,-0.12806 0.60111,-2.82081 1.27673,-5.98388 0.67561,-3.16307 1.22839,-5.82054 1.22839,-5.9055 0,-0.14716 -0.17586,-0.15446 -3.72033,-0.15446 -2.41025,0 -3.73893,0.0301 -3.77312,0.0854 -0.058,0.0939 -2.49721,11.88871 -2.49721,12.07542 0,0.0962 0.62881,0.11584 3.7186,0.11584 h 3.71861 z m 23.62946,4.91713 c -1.13343,-0.14126 -2.27416,-0.60514 -2.9233,-1.18877 -0.87858,-0.78993 -1.23131,-1.84363 -1.15596,-3.4532 0.0486,-1.03873 0.7049,-4.14468 1.1464,-5.42553 0.71945,-2.08729 2.29474,-3.62177 4.45863,-4.34313 1.52885,-0.50966 1.71202,-0.51834 10.94531,-0.51834 h 8.38535 l 0.18404,-0.8255 c 0.10123,-0.45402 0.20361,-0.91076 0.22753,-1.01496 l 0.0435,-0.18946 -9.89995,-0.0222 -9.89996,-0.0222 -0.3404,-0.22528 c -0.49118,-0.32507 -0.66319,-0.72779 -0.66319,-1.55272 0,-0.55142 0.0406,-0.76394 0.21855,-1.1432 0.28714,-0.61209 0.92603,-1.23982 1.56725,-1.53988 l 0.51629,-0.2416 14.80863,0.0239 14.80861,0.0239 0.62134,0.19195 c 2.18072,0.67369 3.07541,1.84652 3.08151,4.03953 0.002,0.89259 -0.0666,1.25711 -1.66051,8.763 -0.91472,4.30741 -1.70687,8.03169 -1.76037,8.27616 l -0.0973,0.4445 -16.17902,-0.0127 c -8.89847,-0.007 -16.29333,-0.0269 -16.43303,-0.0444 z m 18.71133,-4.8748 c 0.46096,-1.92726 1.09981,-5.16538 1.02477,-5.19416 -0.0514,-0.0197 -1.82635,-0.0259 -3.94436,-0.0138 l -3.85092,0.0221 -0.56789,2.62466 c -0.31234,1.44357 -0.57015,2.65325 -0.57291,2.68817 -0.003,0.0349 1.7659,0.0635 3.93036,0.0635 h 3.93539 z m -81.79128,-22.2453 c -0.81344,-0.11951 -1.21004,-0.46401 -1.39925,-1.21543 -0.29763,-1.18198 0.42696,-2.54653 1.67859,-3.16115 l 0.48594,-0.23862 h 6.94267 6.94266 l 0.34985,0.20048 c 0.53058,0.30404 0.75095,0.75497 0.75026,1.53519 -8.5e-4,0.8045 -0.27448,1.43398 -0.88033,2.0241 -0.50689,0.49372 -1.00128,0.74732 -1.67058,0.85693 -0.57897,0.0948 -12.55349,0.0935 -13.19981,-0.002 z m -76.535386,-9.9812 c 0.09313,-0.0941 9.122833,-7.58277 20.066,-16.64147 l 19.896666,-16.47034 16.42231,-0.002 c 14.30821,-0.001 16.40635,0.0141 16.29833,0.12055 -0.0682,0.0672 -9.09587,7.51112 -20.06152,16.54208 l -19.93756,16.41993 -10.627112,0.0519 c -5.844912,0.0286 -13.236964,0.074 -16.426781,0.10098 l -5.799667,0.0491 0.169334,-0.1711 z m 71.782376,0.0129 c 0.022,-0.0361 4.23799,-11.59003 9.36892,-25.67547 5.13093,-14.08544 9.38104,-25.73452 9.44468,-25.88683 l 0.11571,-0.27695 h 14.08722 c 7.74796,0 14.10656,0.0194 14.13023,0.043 0.0354,0.0354 -18.76455,51.68045 -18.83199,51.73307 -0.0689,0.0537 -28.34745,0.11681 -28.31477,0.0632 z m 53.77008,-2.11874 c 0.0298,-1.1991 0.18674,-11.64802 0.34886,-23.21984 0.16212,-11.57182 0.31788,-21.77309 0.34614,-22.6695 l 0.0514,-1.62983 7.03925,8.4e-4 c 7.32819,8.5e-4 8.23469,0.0361 10.00258,0.3885 2.59417,0.51715 5.02646,1.78876 6.77636,3.5427 1.00024,1.00254 1.52071,1.71291 2.12184,2.89599 0.67921,1.33675 1.08143,2.65781 1.35683,4.45636 0.16625,1.0857 0.19256,3.85087 0.22515,23.66181 l 0.0243,14.75317 h -14.17339 -14.17338 l 0.0541,-2.18017 z M 58.642609,267.9439 c -2.110053,-0.18505 -3.744583,-1.48311 -4.416946,-3.5077 -0.202713,-0.61041 -0.227258,-0.81147 -0.228194,-1.86931 -0.0013,-1.41277 0.109226,-1.90046 0.709645,-3.13266 0.918067,-1.88411 2.874958,-3.71957 4.727178,-4.43386 1.395486,-0.53816 0.834994,-0.51914 15.301637,-0.51914 14.562664,0 13.884637,-0.0248 15.097384,0.55118 1.226671,0.58254 2.314645,1.93749 2.676251,3.33298 0.160024,0.61755 0.18115,1.96933 0.04271,2.73278 -0.282474,1.55775 -1.141494,3.06877 -2.507064,4.40993 -1.559975,1.53209 -3.058415,2.26546 -4.975642,2.43519 -1.072034,0.0949 -25.345314,0.0955 -26.426958,8.4e-4 z M 229.54529,249.8781 c 0,-0.0171 0.78105,-3.90698 1.73566,-8.64412 0.95462,-4.73713 1.73567,-8.62837 1.73567,-8.6472 0,-0.0188 2.2098,-0.0342 4.91067,-0.0342 2.70086,0 4.91066,0.0132 4.91066,0.0294 0,0.0162 -0.8001,3.90277 -1.778,8.63682 -0.9779,4.73406 -1.778,8.62606 -1.778,8.64889 0,0.0228 -2.19075,0.0415 -4.86833,0.0415 -2.67758,0 -4.86833,-0.014 -4.86833,-0.0311 z m 14.986,-8.5e-4 c 0,-0.0175 0.78105,-3.89965 1.73566,-8.62694 0.95462,-4.7273 1.73567,-8.61821 1.73567,-8.64648 0,-0.0283 2.2098,-0.0514 4.91067,-0.0514 2.97415,0 4.91066,0.0311 4.91066,0.0788 0,0.0698 -3.40173,16.60979 -3.51431,17.08735 l -0.0449,0.1905 h -4.86673 c -2.67669,1.3e-4 -4.86671,-0.0142 -4.86671,-0.0317 z M 62.208803,247.83058 c -0.975637,-0.19525 -1.756728,-0.62367 -2.502964,-1.37286 -1.141994,-1.1465 -1.59777,-2.44063 -1.497906,-4.25316 0.109207,-1.98209 0.858892,-3.54495 2.488628,-5.18803 1.153544,-1.16299 2.428413,-1.91115 3.892545,-2.28436 l 0.745181,-0.18994 h 13.546667 c 12.67576,0 13.584152,0.01 14.129742,0.14963 1.793779,0.46033 3.277569,1.92799 3.732792,3.69219 0.08728,0.33825 0.139292,0.88063 0.139292,1.45248 0,2.16519 -0.843349,3.9844 -2.652043,5.72082 -1.140881,1.09529 -2.288999,1.78173 -3.640217,2.17642 l -0.618233,0.18058 -13.589,0.0167 c -11.28388,0.0139 -13.688317,-0.003 -14.174484,-0.10047 z m 87.665147,-15.36991 c -7.1851,-0.34226 -15.85714,-1.78162 -23.241,-3.85751 -14.33299,-4.02954 -26.43174,-10.57605 -36.461724,-19.72904 -4.010899,-3.6602 -7.62687,-7.63252 -10.314731,-11.33123 -7.896298,-10.86593 -12.10734,-21.93508 -13.608631,-35.77167 -0.128968,-1.18862 -0.151331,-2.16736 -0.149923,-6.56166 0.0023,-7.12983 0.128769,-9.2461 0.797002,-13.335 1.280432,-7.83493 3.281916,-14.66028 6.318704,-21.54767 0.410643,-0.93134 1.482303,-3.16421 2.381465,-4.96195 l 1.634842,-3.26861 -6.9e-5,-6.76439 c -8.5e-5,-11.576843 0.26292,-16.409823 1.236768,-22.724056 0.708273,-4.592303 1.319712,-7.816499 2.063229,-10.879668 2.387085,-9.834399 6.431111,-19.93143 10.39353,-25.950334 2.080654,-3.160506 3.608062,-4.707331 5.672803,-5.744914 2.876936,-1.445731 6.529535,-1.405192 9.806445,0.108837 3.72066,1.719048 10.91301,8.089344 17.31143,15.332797 1.99847,2.262414 2.51275,2.876557 4.35825,5.204614 1.85078,2.334704 2.58526,3.162954 2.93237,3.306732 0.39016,0.161608 1.05541,0.02492 3.92558,-0.806556 5.40071,-1.564569 9.1406,-2.242135 14.81666,-2.684368 1.88613,-0.146952 9.86817,-0.148915 11.811,-0.0029 5.72379,0.430164 8.11817,0.870581 16.383,3.013467 0.9779,0.253548 1.95874,0.487628 2.17965,0.52018 l 0.40165,0.05918 0.50042,-0.511416 c 0.49973,-0.510709 1.94036,-2.213295 4.24002,-5.010988 5.06043,-6.156364 10.38458,-11.634489 14.4376,-14.855144 2.89975,-2.30424 4.69179,-3.361807 6.94839,-4.100581 2.44393,-0.800104 4.96303,-0.831033 7.18037,-0.08816 1.50732,0.505 2.33045,1.008602 3.51341,2.149555 5.63232,5.432317 11.84274,20.238337 14.77505,35.224662 1.62163,8.287748 2.06326,14.096838 2.24683,29.554451 l 0.0725,6.10178 0.97674,1.85689 c 3.78003,7.18627 6.1041,13.28804 7.85026,20.61055 0.813,3.40938 1.67818,8.25044 1.93679,10.83734 0.30605,3.06138 0.34235,13.48136 0.0566,16.24129 -0.61996,5.98759 -2.14442,12.53938 -4.25865,18.30271 -4.44996,12.13049 -11.95219,22.44496 -22.75625,31.28654 -9.20705,7.53465 -20.08333,13.09419 -32.77317,16.7524 -9.78593,2.82107 -19.75347,4.14269 -30.9385,4.10218 -1.79282,-0.007 -3.88832,-0.0417 -4.65667,-0.0783 z m 9.86367,-11.42469 c 10.4901,-0.33188 21.15679,-2.40911 30.18367,-5.87797 7.01507,-2.69576 14.05832,-6.60628 19.431,-10.78837 4.33088,-3.37116 9.13737,-7.95767 11.90107,-11.35642 2.99656,-3.68512 5.94069,-8.41695 8.01493,-12.88167 4.12228,-8.87307 6.09193,-19.57163 5.05571,-27.46112 -0.66298,-5.04779 -2.24718,-9.2391 -4.88584,-12.92654 -4.37502,-6.11391 -11.84643,-10.74592 -19.83187,-12.29505 -2.74955,-0.5334 -6.00414,-0.63105 -7.47908,-0.2244 -0.78585,0.21666 -1.41332,0.59155 -1.63676,0.97792 -0.13186,0.22801 -0.35194,1.22293 -0.78308,3.5402 -0.45098,2.42389 -1.4788,4.3259 -3.21704,5.95326 -1.33376,1.24868 -2.41044,1.98175 -3.79738,2.58549 -1.81233,0.78892 -3.30367,1.1055 -5.26933,1.11857 -2.49657,0.0166 -3.06325,-0.17383 -8.57363,-2.8812 -4.80115,-2.35891 -6.34177,-3.00542 -8.95237,-3.75677 -3.29942,-0.94959 -6.45673,-1.53789 -10.07533,-1.87733 -1.74024,-0.16324 -6.7358,-0.13926 -8.47339,0.0407 -4.8872,0.50608 -9.14172,1.49441 -13.28595,3.08635 -2.10845,0.80993 -3.17483,1.30608 -5.57522,2.59396 -4.0616,2.17918 -5.15859,2.57851 -7.59343,2.7642 -3.77877,0.28817 -7.54283,-1.20116 -10.26482,-4.06151 -1.85543,-1.94973 -2.78218,-4.00021 -3.06391,-6.77903 -0.0717,-0.70688 -0.18552,-1.32864 -0.2984,-1.62955 -0.25305,-0.67463 -0.86628,-1.32572 -1.54287,-1.63814 l -0.53268,-0.24597 -2.32833,0.007 c -3.50638,0.0109 -5.02762,0.22457 -8.016089,1.12572 -11.26164,3.39585 -19.105227,11.55109 -21.141038,21.98102 -0.501127,2.56739 -0.676583,4.53638 -0.671472,7.53534 0.01412,8.28378 2.208322,16.66928 6.579861,25.146 2.862166,5.54993 6.16594,9.99966 11.192573,15.07482 12.067125,12.18364 28.288865,19.83394 47.460905,22.38293 5.42732,0.72158 11.07482,0.96965 17.46959,0.76733 z M 138.48824,185.1336 c -1.70797,-0.13966 -3.39644,-0.55566 -5.46329,-1.34601 -2.50449,-0.9577 -3.91397,-1.87549 -5.67731,-3.69678 -1.97374,-2.03862 -3.37787,-4.56944 -3.76415,-6.78458 -0.16398,-0.94029 -0.16008,-2.39941 0.009,-3.22008 0.35489,-1.72665 1.60469,-2.87952 3.21362,-2.96439 1.26986,-0.067 2.34241,0.3229 3.05404,1.11017 0.65712,0.72698 0.85323,1.24682 1.42748,3.78396 0.33154,1.46482 1.19642,2.70616 2.52203,3.61982 1.58297,1.09104 2.82991,1.45988 5.43903,1.6088 3.51902,0.20086 6.31557,-0.47301 8.73319,-2.1044 0.75049,-0.50644 1.88851,-1.57009 2.49409,-2.33113 1.21923,-1.53224 2.02335,-3.70102 2.02059,-5.44976 -0.002,-1.16734 -0.12397,-1.3959 -0.98147,-1.83664 -0.36688,-0.18857 -1.10573,-0.52071 -1.64187,-0.7381 -2.19618,-0.89046 -3.67951,-1.86406 -5.29631,-3.47628 -2.03726,-2.03149 -3.16357,-4.15961 -3.42935,-6.47964 -0.12327,-1.07598 -0.0551,-3.26203 0.12778,-4.09499 0.42759,-1.94791 1.68603,-4.05681 3.33822,-5.59417 1.43713,-1.33724 3.91447,-2.60192 5.72512,-2.92267 0.89339,-0.15826 4.65763,-0.27729 7.40752,-0.23422 2.47804,0.0388 2.73281,0.057 3.55815,0.25483 4.27034,1.02338 7.90245,4.3545 8.88433,8.14809 1.14854,4.43746 -0.69536,9.3036 -4.64518,12.25885 -1.04839,0.7844 -2.74767,1.66419 -4.29886,2.2257 -1.39969,0.50667 -1.95798,0.88931 -2.24532,1.53889 -0.13131,0.29685 -0.14994,0.47209 -0.1035,0.97367 0.21899,2.36527 1.19544,4.41464 2.9803,6.25506 1.41184,1.45577 3.0606,2.44525 5.10275,3.06232 1.64459,0.49694 2.43441,0.60377 4.44315,0.60093 1.50836,-0.002 1.90882,-0.0308 2.64062,-0.18894 2.83623,-0.61298 4.75972,-1.84909 5.69012,-3.65669 0.41107,-0.79861 0.46319,-0.96489 0.76494,-2.44032 0.29444,-1.43964 0.59175,-2.12481 1.20206,-2.77011 0.5217,-0.55162 1.38344,-1.01091 2.16943,-1.15626 1.39972,-0.25885 3.07857,0.59586 3.73206,1.90003 0.39351,0.78532 0.52535,1.41137 0.53055,2.51933 0.0181,3.86055 -2.48016,8.11147 -6.21882,10.58162 -4.15267,2.74369 -9.91171,3.72457 -15.10982,2.57351 -2.62841,-0.58203 -5.04304,-1.66204 -7.98182,-3.57012 -2.12744,-1.38129 -2.18443,-1.40852 -2.95565,-1.4119 -0.74577,-0.003 -1.13097,0.16646 -2.57191,1.13323 -4.61288,3.09491 -10.13257,4.70309 -14.82514,4.31937 z m 24.18797,-34.01167 c 0.67886,-0.71171 0.78443,-0.94792 0.78409,-1.75437 0,-0.77315 -0.17233,-1.20364 -0.70482,-1.76401 -0.40269,-0.42376 -0.80022,-0.62207 -1.46247,-0.72953 -0.74489,-0.12086 -10.46084,-0.11877 -11.12834,0.002 -0.63974,0.11614 -1.10231,0.38575 -1.58728,0.92515 -0.93248,1.03715 -0.84395,2.15988 0.26171,3.31905 l 0.46796,0.49061 h 6.45123 6.45122 l 0.4667,-0.4893 z m -53.44226,8.87821 c -0.566,-0.11131 -1.13923,-0.47416 -1.81766,-1.15055 -0.83007,-0.82759 -1.17406,-1.39559 -1.40983,-2.32794 -0.22636,-0.89511 -0.18158,-1.5038 0.17701,-2.40651 0.3447,-0.86773 0.72026,-1.4388 1.28475,-1.95358 0.82875,-0.75577 1.82335,-1.14022 2.95445,-1.142 1.20625,-0.002 2.50516,0.5257 3.15837,1.28289 1.21227,1.40523 1.67119,3.00303 1.25254,4.36095 -0.5207,1.68892 -1.75515,2.81356 -3.60658,3.28578 -0.5152,0.13141 -1.46102,0.15559 -1.99305,0.051 z m 90.54652,-0.0353 c -1.12532,-0.37134 -2.26601,-1.3033 -2.73626,-2.23558 -1.60123,-3.17444 0.70557,-6.90207 4.13774,-6.68633 0.8838,0.0556 1.52658,0.27509 2.28851,0.78163 1.89354,1.25881 2.54941,3.56073 1.59381,5.5937 -0.52923,1.12587 -1.49969,1.97235 -2.77758,2.42274 -0.60784,0.21423 -2.02072,0.28405 -2.50622,0.12384 z m -77.57731,-30.59567 c 1.05536,-0.49416 1.73037,-1.3586 1.93138,-2.47342 0.17751,-0.98446 -0.15073,-2.15208 -0.81019,-2.88202 -1.37174,-1.51836 -3.60208,-1.59409 -5.02552,-0.17065 -1.75969,1.75968 -0.9501,4.93664 1.45801,5.72142 0.22401,0.073 0.64035,0.10756 1.11878,0.0929 0.64744,-0.0199 0.84702,-0.0632 1.32754,-0.28821 z m 69.80608,0.0744 c 0.74768,-0.2334 1.17908,-0.54787 1.55992,-1.13709 0.72543,-1.1224 0.84668,-2.25364 0.3534,-3.29719 -0.62938,-1.33146 -1.92785,-2.18473 -3.32462,-2.18473 -1.24036,0 -2.17699,0.64167 -2.81468,1.92829 -0.33887,0.6837 -0.35964,0.7676 -0.35964,1.45311 0,0.98266 0.30038,1.75036 0.96816,2.47439 0.40115,0.43495 0.55924,0.54075 1.06384,0.71201 0.75578,0.25652 1.82709,0.27799 2.55362,0.0512 z m -18.23756,-1.75149 c 1.61834,-0.23848 2.53121,-0.61022 3.74028,-1.52313 0.32908,-0.24847 1.49368,-1.27954 2.58799,-2.29126 3.26819,-3.02152 4.69274,-4.15911 8.04334,-6.42308 2.10047,-1.41928 2.68749,-1.87673 3.17274,-2.47243 1.11799,-1.37245 1.49348,-3.69073 0.88335,-5.45377 -0.31851,-0.92035 -0.66921,-1.45135 -1.50835,-2.28375 -1.23383,-1.22394 -2.23982,-1.67093 -3.94644,-1.75352 -2.09504,-0.10139 -3.19917,0.44916 -10.96264,5.46627 -4.46138,2.88314 -6.85958,4.57042 -7.45655,5.24613 -2.08414,2.35905 -2.42278,5.62384 -0.85645,8.25704 0.97652,1.64164 2.45436,2.66727 4.53877,3.14991 0.46928,0.10866 0.86301,0.20023 0.87496,0.20349 0.012,0.003 0.412,-0.0516 0.889,-0.1219 z m -34.69307,-0.0453 c 1.36773,-0.1297 2.13426,-0.38795 3.09068,-1.04129 1.54897,-1.0581 2.63296,-2.8948 2.88962,-4.89608 0.22224,-1.73294 -0.37517,-3.77801 -1.51338,-5.18064 -0.22142,-0.27285 -0.74548,-0.75285 -1.16458,-1.06666 -2.44464,-1.83048 -12.17391,-8.13559 -14.00883,-9.07851 -1.16855,-0.60049 -1.99047,-0.8431 -3.03155,-0.89484 -1.0457,-0.052 -1.76308,0.0949 -2.77162,0.56737 -1.27438,0.59705 -2.15518,1.43059 -2.796,2.64596 -1.01837,1.93145 -0.80642,4.44031 0.52994,6.27292 0.37292,0.5114 1.57467,1.44359 4.00173,3.10411 3.05076,2.08723 3.37485,2.34788 7.52914,6.05534 3.23794,2.88968 3.95619,3.3036 6.22919,3.58994 0.0466,0.006 0.50361,-0.0291 1.01566,-0.0776 z M 90.700486,96.479487 c 0.528541,-0.18071 1.206713,-0.71591 2.785689,-2.19842 0.861605,-0.80897 2.157005,-1.98285 2.878666,-2.60863 1.646768,-1.42798 2.402478,-2.13181 2.844436,-2.64916 l 0.34699,-0.40618 0.05598,-0.98006 c 0.03079,-0.53904 0.112326,-2.18639 0.181199,-3.66078 0.251974,-5.394129 0.412824,-7.762384 0.678864,-9.995421 0.26397,-2.215598 0.54308,-2.965152 1.4386,-3.863455 0.7929,-0.795371 1.72298,-1.128816 2.8551,-1.023597 1.75035,0.162678 3.66258,1.367468 7.26188,4.575301 2.21984,1.978402 2.24474,1.996132 2.80396,1.996132 0.66843,0 1.43665,-0.407777 3.20744,-1.70254 0.76835,-0.561802 1.72692,-1.245414 2.13015,-1.51914 0.62381,-0.423464 0.7651,-0.564417 0.94744,-0.945169 0.36784,-0.768111 0.34134,-0.964106 -0.2489,-1.840814 -2.27371,-3.377211 -9.73504,-11.630323 -12.87823,-14.244821 -2.22807,-1.853307 -3.76516,-2.486773 -5.50136,-2.267226 -0.91207,0.115333 -1.65067,0.377718 -2.12522,0.754972 -0.709456,0.563995 -1.636969,1.572746 -2.155221,2.343991 -0.550287,0.818918 -2.303318,4.312357 -3.067355,6.112624 -2.332609,5.496226 -3.845536,11.085963 -5.125914,18.938456 -0.731958,4.489057 -1.01245,7.385697 -1.074017,11.091337 -0.04144,2.49427 -0.03014,2.92081 0.08464,3.19432 0.167271,0.39859 0.857161,0.9087 1.336515,0.98824 0.02797,0.005 0.180375,-0.0358 0.338666,-0.09 z m 131.258604,-0.30222 c 0.69969,-0.4951 0.68678,-0.44018 0.67859,-2.88721 -0.0379,-11.323852 -3.42247,-25.98137 -8.06797,-34.939735 -2.12498,-4.097811 -3.66452,-5.316301 -6.55422,-5.18744 -1.461,0.06515 -2.23884,0.430052 -4.1242,1.934757 -1.04433,0.833475 -4.39239,4.149393 -6.02039,5.962577 -2.88238,3.210276 -6.48287,7.606863 -7.34586,8.970076 -0.41124,0.649615 -0.32116,1.17618 0.309,1.806338 0.51904,0.519045 4.40098,3.403529 4.88175,3.627401 0.76699,0.357152 1.38932,0.228398 2.24847,-0.46519 0.20936,-0.16901 0.83801,-0.722386 1.397,-1.229724 4.26146,-3.867658 6.21416,-4.956081 8.2951,-4.623648 1.62026,0.258838 2.63871,1.336422 3.08116,3.260081 0.46246,2.010636 0.76266,5.849553 0.94379,12.069007 0.12419,4.26426 0.18133,4.43822 1.91964,5.84552 1.12637,0.91188 2.37381,2.00533 4.04867,3.54884 2.05248,1.89152 2.67196,2.42829 2.92718,2.53632 0.34087,0.14429 1.01282,0.0335 1.38229,-0.22797 z"
       id="path1033" />
  </g>
</svg>
